<svg xmlns="http://www.w3.org/2000/svg" viewBox="0 0 100 100">
  <!-- Updated SVG to better represent Vlaser logo with red dotted sphere -->
  <defs>
    <radialGradient id="sphereGrad" cx="50%" cy="50%">
      <stop offset="0%" style="stop-color:#E53E3E;stop-opacity:1" />
      <stop offset="100%" style="stop-color:#9B2C2C;stop-opacity:1" />
    </radialGradient>
  </defs>
  
  <!-- Background sphere gradient -->
  <circle cx="50" cy="50" r="48" fill="url(#sphereGrad)" opacity="0.2"/>
  
  <!-- Dotted sphere pattern representing Vlaser's distinctive globe -->
  <circle cx="25" cy="30" r="2.5" fill="#9B2C2C"/>
  <circle cx="38" cy="26" r="2.5" fill="#9B2C2C"/>
  <circle cx="50" cy="24" r="2.5" fill="#9B2C2C"/>
  <circle cx="62" cy="26" r="2.5" fill="#9B2C2C"/>
  <circle cx="75" cy="30" r="2.5" fill="#9B2C2C"/>
  
  <circle cx="20" cy="40" r="2.5" fill="#C53030"/>
  <circle cx="32" cy="36" r="2.5" fill="#C53030"/>
  <circle cx="44" cy="34" r="2.5" fill="#C53030"/>
  <circle cx="56" cy="34" r="2.5" fill="#C53030"/>
  <circle cx="68" cy="36" r="2.5" fill="#C53030"/>
  <circle cx="80" cy="40" r="2.5" fill="#C53030"/>
  
  <circle cx="17" cy="50" r="2.5" fill="#E53E3E"/>
  <circle cx="28" cy="47" r="2.5" fill="#E53E3E"/>
  <circle cx="39" cy="45" r="2.5" fill="#E53E3E"/>
  <circle cx="50" cy="44" r="2.5" fill="#E53E3E"/>
  <circle cx="61" cy="45" r="2.5" fill="#E53E3E"/>
  <circle cx="72" cy="47" r="2.5" fill="#E53E3E"/>
  <circle cx="83" cy="50" r="2.5" fill="#E53E3E"/>
  
  <circle cx="20" cy="60" r="2.5" fill="#C53030"/>
  <circle cx="32" cy="58" r="2.5" fill="#C53030"/>
  <circle cx="44" cy="56" r="2.5" fill="#C53030"/>
  <circle cx="56" cy="56" r="2.5" fill="#C53030"/>
  <circle cx="68" cy="58" r="2.5" fill="#C53030"/>
  <circle cx="80" cy="60" r="2.5" fill="#C53030"/>
  
  <circle cx="25" cy="70" r="2.5" fill="#9B2C2C"/>
  <circle cx="38" cy="68" r="2.5" fill="#9B2C2C"/>
  <circle cx="50" cy="67" r="2.5" fill="#9B2C2C"/>
  <circle cx="62" cy="68" r="2.5" fill="#9B2C2C"/>
  <circle cx="75" cy="70" r="2.5" fill="#9B2C2C"/>
  
  <!-- Stylized "V" for Vlaser in the center -->
  <path d="M 35 45 L 45 60 L 50 60 L 42 45 Z" fill="#2D3748" opacity="0.9"/>
  <path d="M 58 45 L 50 60 L 55 60 L 65 45 Z" fill="#2D3748" opacity="0.9"/>
</svg>
