<svg xmlns="http://www.w3.org/2000/svg" viewBox="0 0 512 512">
  <defs>
    <!-- Simplified gradient for cleaner rounded icon -->
    <radialGradient id="bgGradient" cx="50%" cy="50%">
      <stop offset="0%" style="stop-color:#C54545;stop-opacity:1" />
      <stop offset="100%" style="stop-color:#8B2828;stop-opacity:1" />
    </radialGradient>
  </defs>
  
  <!-- Main circular background -->
  <circle cx="256" cy="256" r="256" fill="url(#bgGradient)"/>
  
  <!-- Simplified dotted sphere pattern inspired by Vlaser logo -->
  <!-- Top row -->
  <circle cx="150" cy="120" r="10" fill="#6B1F1F" opacity="0.6"/>
  <circle cx="200" cy="100" r="12" fill="#7D2828" opacity="0.7"/>
  <circle cx="256" cy="90" r="14" fill="#8B3333" opacity="0.8"/>
  <circle cx="312" cy="100" r="12" fill="#7D2828" opacity="0.7"/>
  <circle cx="362" cy="120" r="10" fill="#6B1F1F" opacity="0.6"/>
  
  <!-- Second row -->
  <circle cx="120" cy="160" r="12" fill="#7D2828" opacity="0.7"/>
  <circle cx="175" cy="140" r="14" fill="#8B3333" opacity="0.8"/>
  <circle cx="230" cy="130" r="16" fill="#9B3E3E" opacity="0.9"/>
  <circle cx="282" cy="130" r="16" fill="#9B3E3E" opacity="0.9"/>
  <circle cx="337" cy="140" r="14" fill="#8B3333" opacity="0.8"/>
  <circle cx="392" cy="160" r="12" fill="#7D2828" opacity="0.7"/>
  
  <!-- Center row (brightest) -->
  <circle cx="100" cy="210" r="14" fill="#8B3333" opacity="0.8"/>
  <circle cx="160" cy="190" r="16" fill="#9B3E3E" opacity="0.9"/>
  <circle cx="215" cy="180" r="18" fill="#B83A3A"/>
  <circle cx="256" cy="175" r="20" fill="#D54F4F"/>
  <circle cx="297" cy="180" r="18" fill="#B83A3A"/>
  <circle cx="352" cy="190" r="16" fill="#9B3E3E" opacity="0.9"/>
  <circle cx="412" cy="210" r="14" fill="#8B3333" opacity="0.8"/>
  
  <!-- Fourth row -->
  <circle cx="120" cy="270" r="12" fill="#7D2828" opacity="0.7"/>
  <circle cx="175" cy="250" r="14" fill="#8B3333" opacity="0.8"/>
  <circle cx="230" cy="240" r="16" fill="#9B3E3E" opacity="0.9"/>
  <circle cx="282" cy="240" r="16" fill="#9B3E3E" opacity="0.9"/>
  <circle cx="337" cy="250" r="14" fill="#8B3333" opacity="0.8"/>
  <circle cx="392" cy="270" r="12" fill="#7D2828" opacity="0.7"/>
  
  <!-- Bottom row -->
  <circle cx="150" cy="320" r="10" fill="#6B1F1F" opacity="0.6"/>
  <circle cx="200" cy="300" r="12" fill="#7D2828" opacity="0.7"/>
  <circle cx="256" cy="290" r="14" fill="#8B3333" opacity="0.8"/>
  <circle cx="312" cy="300" r="12" fill="#7D2828" opacity="0.7"/>
  <circle cx="362" cy="320" r="10" fill="#6B1F1F" opacity="0.6"/>
  
  <!-- Minimalist "V" mark centered at bottom -->
  <g transform="translate(256, 380)">
    <!-- V shape with subtle gold accent -->
    <path d="M -35,-25 L -15,15 L 0,15 L 15,-25 L 25,-25 L 5,25 L -5,25 L -25,-25 Z" 
          fill="#1a1a1a"/>
    <path d="M -32,-22 L -17,10 L -3,10 L 12,-22 L 20,-22 L 3,20 L -3,20 L -20,-22 Z" 
          fill="#D4AF37" opacity="0.3"/>
  </g>
</svg>
