<svg xmlns="http://www.w3.org/2000/svg" viewBox="0 0 512 512">
  <defs>
    <!-- Modern gradient for the circle background -->
    <linearGradient id="bgGradient" x1="0%" y1="0%" x2="100%" y2="100%">
      <stop offset="0%" style="stop-color:#B83A3A;stop-opacity:1" />
      <stop offset="100%" style="stop-color:#8B2828;stop-opacity:1" />
    </linearGradient>
    
    <!-- Dot pattern gradient -->
    <radialGradient id="dotGradient" cx="30%" cy="30%">
      <stop offset="0%" style="stop-color:#E55555;stop-opacity:1" />
      <stop offset="100%" style="stop-color:#B83A3A;stop-opacity:1" />
    </radialGradient>
  </defs>
  
  <!-- Circular background with gradient -->
  <circle cx="256" cy="256" r="256" fill="url(#bgGradient)"/>
  
  <!-- Modern dotted sphere pattern in crescent formation -->
  <!-- Top arc -->
  <circle cx="120" cy="140" r="12" fill="#7D2828" opacity="0.6"/>
  <circle cx="150" cy="120" r="14" fill="#8B3333" opacity="0.7"/>
  <circle cx="185" cy="105" r="16" fill="#9B3E3E" opacity="0.8"/>
  <circle cx="225" cy="95" r="18" fill="#B83A3A" opacity="0.9"/>
  <circle cx="270" cy="90" r="20" fill="#C54545"/>
  <circle cx="315" cy="95" r="18" fill="#B83A3A" opacity="0.9"/>
  <circle cx="355" cy="105" r="16" fill="#9B3E3E" opacity="0.8"/>
  <circle cx="390" cy="120" r="14" fill="#8B3333" opacity="0.7"/>
  
  <!-- Upper middle arc -->
  <circle cx="100" cy="180" r="14" fill="#8B3333" opacity="0.7"/>
  <circle cx="135" cy="160" r="16" fill="#9B3E3E" opacity="0.8"/>
  <circle cx="175" cy="145" r="18" fill="#B83A3A" opacity="0.9"/>
  <circle cx="220" cy="135" r="20" fill="#C54545"/>
  <circle cx="265" cy="130" r="22" fill="#D54F4F"/>
  <circle cx="310" cy="135" r="20" fill="#C54545"/>
  <circle cx="350" cy="145" r="18" fill="#B83A3A" opacity="0.9"/>
  <circle cx="385" cy="160" r="16" fill="#9B3E3E" opacity="0.8"/>
  <circle cx="412" cy="180" r="14" fill="#8B3333" opacity="0.7"/>
  
  <!-- Center arc (largest dots) -->
  <circle cx="85" cy="230" r="16" fill="#9B3E3E" opacity="0.8"/>
  <circle cx="125" cy="210" r="18" fill="#B83A3A" opacity="0.9"/>
  <circle cx="170" cy="195" r="20" fill="#C54545"/>
  <circle cx="215" cy="185" r="22" fill="#D54F4F"/>
  <circle cx="260" cy="180" r="24" fill="#E55555"/>
  <circle cx="305" cy="185" r="22" fill="#D54F4F"/>
  <circle cx="350" cy="195" r="20" fill="#C54545"/>
  <circle cx="390" cy="210" r="18" fill="#B83A3A" opacity="0.9"/>
  <circle cx="425" cy="230" r="16" fill="#9B3E3E" opacity="0.8"/>
  
  <!-- Lower middle arc -->
  <circle cx="100" cy="290" r="14" fill="#8B3333" opacity="0.7"/>
  <circle cx="135" cy="270" r="16" fill="#9B3E3E" opacity="0.8"/>
  <circle cx="175" cy="255" r="18" fill="#B83A3A" opacity="0.9"/>
  <circle cx="220" cy="245" r="20" fill="#C54545"/>
  <circle cx="265" cy="240" r="22" fill="#D54F4F"/>
  <circle cx="310" cy="245" r="20" fill="#C54545"/>
  <circle cx="350" cy="255" r="18" fill="#B83A3A" opacity="0.9"/>
  <circle cx="385" cy="270" r="16" fill="#9B3E3E" opacity="0.8"/>
  <circle cx="412" cy="290" r="14" fill="#8B3333" opacity="0.7"/>
  
  <!-- Bottom arc -->
  <circle cx="120" cy="340" r="12" fill="#7D2828" opacity="0.6"/>
  <circle cx="150" cy="320" r="14" fill="#8B3333" opacity="0.7"/>
  <circle cx="185" cy="305" r="16" fill="#9B3E3E" opacity="0.8"/>
  <circle cx="225" cy="295" r="18" fill="#B83A3A" opacity="0.9"/>
  <circle cx="270" cy="290" r="20" fill="#C54545"/>
  <circle cx="315" cy="295" r="18" fill="#B83A3A" opacity="0.9"/>
  <circle cx="355" cy="305" r="16" fill="#9B3E3E" opacity="0.8"/>
  <circle cx="390" cy="320" r="14" fill="#8B3333" opacity="0.7"/>
  
  <!-- Stylized "V" lettermark with gold accent -->
  <g transform="translate(256, 340)">
    <!-- Gold outline/accent -->
    <path d="M -45,-20 L -35,30 L -25,30 L -15,-20 L -5,-20 L 5,30 L 45,30 L 45,35 L -45,35 Z" 
          fill="#D4AF37" opacity="0.3"/>
    
    <!-- Main V shape -->
    <path d="M -40,-15 L -30,25 L -20,25 L -10,-15 L 0,-15 L 10,25 L 40,25 L 40,30 L -40,30 Z" 
          fill="#1a1a1a"/>
    
    <!-- Gold highlight on V -->
    <path d="M -38,-13 L -32,18 L -22,18 L -16,-13 Z" 
          fill="#D4AF37" opacity="0.15"/>
  </g>
</svg>
